<?xml version="1.0" encoding="UTF-8" standalone="no"?>
<!-- base template for piano 88 keyboard, edited by Vlad Coolish for wikipedia.org -->
<svg xmlns="http://www.w3.org/2000/svg" xmlns:svg="http://www.w3.org/2000/svg" xmlns:xlink="http://www.w3.org/1999/xlink" version="1.0" width="1250" height="152">

<!-- White (ivory) block 52 key size 23*145/149 mm -->
<rect id="keyw" width="23" height="149" rx="2.4" ry="4.8" x="1.5" y="1.5" style="fill:#fffff0;fill-opacity:1;stroke:black;stroke-width:1;stroke-opacity:1"/>
<use x="24" xlink:href="#keyw"/>
<use x="48" xlink:href="#keyw"/>
<use x="72" xlink:href="#keyw"/>
<use x="96" xlink:href="#keyw"/>
<use x="120" xlink:href="#keyw"/>
<use x="144" xlink:href="#keyw"/>
<use x="168" xlink:href="#keyw"/>
<use x="192" xlink:href="#keyw"/>
<use x="216" xlink:href="#keyw"/>
<use x="240" xlink:href="#keyw"/>
<use x="264" xlink:href="#keyw"/>
<use x="288" xlink:href="#keyw"/>
<use x="312" xlink:href="#keyw"/>
<use x="336" xlink:href="#keyw"/>
<use x="360" xlink:href="#keyw"/>
<use x="384" xlink:href="#keyw"/>
<use x="408" xlink:href="#keyw"/>
<use x="432" xlink:href="#keyw"/>
<use x="456" xlink:href="#keyw"/>
<use x="480" xlink:href="#keyw"/>
<use x="504" xlink:href="#keyw"/>
<use x="528" xlink:href="#keyw"/>
<use x="552" xlink:href="#keyw"/>
<use x="576" xlink:href="#keyw"/>
<use x="600" xlink:href="#keyw"/>
<use x="624" xlink:href="#keyw"/>
<use x="648" xlink:href="#keyw"/>
<use x="672" xlink:href="#keyw"/>
<use x="696" xlink:href="#keyw"/>
<use x="720" xlink:href="#keyw"/> 
<use x="744" xlink:href="#keyw"/>
<use x="768" xlink:href="#keyw"/>
<use x="792" xlink:href="#keyw"/>
<use x="816" xlink:href="#keyw"/>
<use x="840" xlink:href="#keyw"/>
<use x="864" xlink:href="#keyw"/>
<use x="888" xlink:href="#keyw"/>
<use x="912" xlink:href="#keyw"/>
<use x="936" xlink:href="#keyw"/>
<use x="960" xlink:href="#keyw"/>
<use x="984" xlink:href="#keyw"/>
<use x="1008" xlink:href="#keyw"/>
<use x="1032" xlink:href="#keyw"/>
<use x="1056" xlink:href="#keyw"/>
<use x="1080" xlink:href="#keyw"/>
<use x="1104" xlink:href="#keyw"/>
<use x="1128" xlink:href="#keyw"/>
<use x="1152" xlink:href="#keyw"/>
<use x="1176" xlink:href="#keyw"/>
<use x="1200" xlink:href="#keyw"/>
<use x="1224" xlink:href="#keyw"/>

 <!-- C first C4 middle C -->
<circle cx="565" cy="139" r="4" fill="white" fill-opacity="0.5" stroke="black"/>

<!-- Black block 36 key size 9*95/99 mm -->
<rect id="keyb" width="9" height="99" rx="1" ry="1" x="20.75" y="1.75" style="fill:black;fill-opacity:1;stroke:black;stroke-width:1.46;stroke-opacity:1"/>
<use x="48" xlink:href="#keyb"/>
<use x="72" xlink:href="#keyb"/>
<use x="120" xlink:href="#keyb"/>
<use x="144" xlink:href="#keyb"/>
<use x="168" xlink:href="#keyb"/>
<use x="216" xlink:href="#keyb"/>
<use x="240" xlink:href="#keyb"/>
<use x="288" xlink:href="#keyb"/>
<use x="312" xlink:href="#keyb"/>
<use x="336" xlink:href="#keyb"/>
<use x="384" xlink:href="#keyb"/>
<use x="408" xlink:href="#keyb"/>
<use x="456" xlink:href="#keyb"/>
<use x="480" xlink:href="#keyb"/>
<use x="504" xlink:href="#keyb"/>
<use x="552" xlink:href="#keyb"/>
<use x="576" xlink:href="#keyb"/>
<use x="624" xlink:href="#keyb"/>
<use x="648" xlink:href="#keyb"/>
<use x="672" xlink:href="#keyb"/>
<use x="720" xlink:href="#keyb"/>
<use x="744" xlink:href="#keyb"/>
<use x="792" xlink:href="#keyb"/>
<use x="816" xlink:href="#keyb"/>
<use x="840" xlink:href="#keyb"/>
<use x="888" xlink:href="#keyb"/>
<use x="912" xlink:href="#keyb"/>
<use x="960" xlink:href="#keyb"/>
<use x="984" xlink:href="#keyb"/>
<use x="1008" xlink:href="#keyb"/>
<use x="1056" xlink:href="#keyb"/>
<use x="1080" xlink:href="#keyb"/>
<use x="1128" xlink:href="#keyb"/>
<use x="1152" xlink:href="#keyb"/>
<use x="1176" xlink:href="#keyb"/>
</svg>